<svg width="74" height="18" viewBox="0 0 74 18" fill="none" xmlns="http://www.w3.org/2000/svg">
<path d="M68.5862 2.55267C69.5339 2.21836 70.313 1.94724 71.0896 1.66558C71.5923 1.48395 72.074 1.44447 72.311 2.02094C72.5321 2.56057 72.4162 3.08966 71.8714 3.38448C71.1475 3.77669 70.3894 4.10836 69.6602 4.45846C69.7918 5.17971 69.9287 5.84305 70.0261 6.51166C70.1261 7.20659 70.4025 7.4198 71.0869 7.20659C71.6029 7.04601 72.0398 6.52219 72.6637 6.94599C73.3428 7.40664 73.5508 8.1121 73.6982 8.85178C73.9246 9.97577 73.9561 11.1024 73.714 12.2343C73.4955 13.2609 72.1899 14.477 71.1949 14.4059C70.8684 14.3823 70.5736 13.9111 70.1919 13.5794C70.0419 14.3612 69.9919 15.1851 69.7076 15.9169C69.4365 16.6145 68.9205 17.2173 68.3362 17.8201C67.6281 16.5197 67.9387 15.1614 67.8334 13.8584C67.7281 12.5581 67.6518 11.2551 67.557 9.87838C66.7436 9.87048 66.3567 10.2153 66.3804 10.9576C66.3962 11.4367 66.4936 11.9105 66.5462 12.3896C66.5831 12.7371 66.6304 13.0872 66.6199 13.4346C66.6094 13.8874 66.4988 14.4191 65.9671 14.3875C65.7275 14.3744 65.4011 13.8795 65.3143 13.5504C64.9063 12 65.0089 10.4259 65.288 8.86494C65.4248 8.09894 65.7828 7.78569 66.5541 7.89888C67.328 8.01207 67.6018 7.71726 67.6676 7.01969C67.707 6.58536 67.8624 6.15103 67.8413 5.7246C67.8255 5.42714 67.5939 5.14286 67.4596 4.8533C67.2359 5.02703 66.9726 5.16918 66.7963 5.3824C66.4936 5.74829 66.2803 6.19052 65.9566 6.53272C65.8144 6.68276 65.4301 6.78542 65.2774 6.69855C65.1169 6.60905 64.9852 6.2221 65.0458 6.03258C65.4433 4.78486 65.8723 3.54768 66.3461 2.32892C66.5172 1.88932 66.8121 1.48132 67.12 1.11543C67.2938 0.907478 67.6386 0.662671 67.8439 0.710053C68.0703 0.762699 68.2914 1.09964 68.3941 1.36287C68.5152 1.67348 68.5099 2.0341 68.5836 2.55793L68.5862 2.55267ZM71.6213 10.597C71.6029 10.597 71.5818 10.597 71.5634 10.597C71.5634 10.16 71.6081 9.71781 71.5528 9.28874C71.4818 8.74122 71.0817 8.51748 70.6236 8.82019C70.3446 9.00445 70.0761 9.39667 70.0393 9.72044C69.955 10.4522 70.0156 11.2024 70.0261 11.9447C70.0314 12.3527 70.0656 12.7581 70.6078 12.8002C71.1554 12.8424 71.4133 12.4975 71.4949 12.029C71.5765 11.5578 71.5844 11.0734 71.6239 10.597H71.6213Z" fill="#0F1936"/>
<path d="M45.6668 7.37233C46.7381 7.22493 47.8121 7.1091 48.8756 6.91958C49.7732 6.75901 50.4944 7.13806 50.7524 8.09885C50.9209 8.72798 51.0341 9.38868 51.0604 10.0389C51.1104 11.3498 51.1025 12.6659 51.0841 13.9794C51.0709 14.9797 50.7234 15.88 50.0206 16.5933C49.3283 17.2961 48.7281 17.2514 48.2543 16.409C47.8726 15.7299 47.3488 15.5378 46.6381 15.5351C45.2772 15.5325 43.9189 15.5035 42.6659 16.1669C42.0947 16.4696 41.7578 16.2037 41.534 15.6878C41.4814 15.5667 41.4314 15.4456 41.3998 15.3166C40.8391 13.2055 40.8839 11.0628 41.2076 8.93329C41.3814 7.79877 41.613 7.67768 42.7897 7.75928C43.403 7.8014 43.7662 7.53817 44.0795 7.05383C44.4349 6.50368 44.806 5.95616 45.2377 5.46655C45.5588 5.10066 45.9905 4.79004 46.4723 5.27965C46.9224 5.73767 46.8171 6.28782 46.2143 6.69057C46.009 6.82745 45.7747 6.92221 45.5536 7.0354C45.5931 7.14859 45.6326 7.26178 45.672 7.37497L45.6668 7.37233ZM43.4319 11.9683C43.5504 10.9628 44.2559 10.2705 44.8034 9.50187C45.1482 9.01753 45.5404 8.81747 46.1143 9.30708C46.367 9.52293 46.8382 9.57821 47.1988 9.54925C47.7384 9.50713 48.2649 9.32551 48.8703 9.186C48.7439 8.75167 48.6255 8.34892 48.507 7.94355C47.5068 8.13834 46.6091 8.29101 45.7221 8.49633C45.1272 8.63584 44.5401 8.82273 43.9716 9.04648C43.403 9.27022 43.0187 9.71772 42.9923 10.3389C42.9423 11.4761 42.9371 12.6159 42.9476 13.753C42.9529 14.3795 43.3793 14.4611 43.8663 14.2979C44.5954 14.0531 44.9087 13.4556 45.193 12.6764C44.5717 12.4264 44.0242 12.2053 43.4319 11.9657V11.9683ZM48.9071 10.4916C48.8203 10.4653 48.736 10.439 48.6492 10.4126C48.257 10.9049 47.6752 11.3419 47.5094 11.9025C47.204 12.9318 46.6197 13.5082 45.6247 13.7636C45.5904 13.7715 45.5931 13.9163 45.5509 14.1347C46.4301 14.1347 47.2883 14.1347 48.1464 14.1347C48.6176 14.1347 48.8887 13.8768 48.8992 13.4187C48.9203 12.4448 48.9045 11.4682 48.9045 10.4942L48.9071 10.4916ZM45.0745 11.1602C46.2011 11.8683 46.5802 11.692 46.8566 10.3284C46.1617 10.4205 45.4746 10.4442 45.0745 11.1602Z" fill="#0F1936"/>
<path d="M23.798 16.0038C25.3695 15.7459 25.6169 15.5406 25.8749 13.9612C25.996 13.2347 25.9749 12.4818 25.9881 11.7395C25.9986 11.1183 25.6222 10.9867 25.1142 11.1709C24.7035 11.3183 24.3271 11.5526 23.9191 11.7106C22.8872 12.1107 21.8422 11.3762 21.8369 10.2575C21.8343 9.72579 22.166 9.47572 22.6293 9.3599C23.2663 9.20459 23.9086 9.07035 24.5456 8.91767C24.843 8.8466 25.1747 8.81501 25.4169 8.65444C25.6354 8.50967 25.8986 8.19905 25.8775 7.98583C25.8565 7.78051 25.5301 7.54624 25.2879 7.43568C25.0641 7.33565 24.7272 7.46464 24.5219 7.34618C24.2113 7.16719 23.8559 6.91185 23.7296 6.60387C23.5558 6.17217 23.7454 5.70889 24.2218 5.52463C25.2826 5.11926 26.354 4.73757 27.4358 4.39537C27.7096 4.3085 28.0571 4.34536 28.3414 4.42696C29.26 4.69019 29.4706 5.58781 28.7783 6.23272C28.5888 6.40909 28.2887 6.51174 28.1755 6.71969C28.0439 6.95923 27.986 7.2988 28.0492 7.5594C28.0781 7.67259 28.4835 7.72787 28.723 7.7463C29.3206 7.79895 29.9602 7.69102 30.5078 7.87528C31.458 8.19379 31.5449 9.11247 30.6868 9.65472C30.2235 9.94954 29.6444 10.1101 29.0942 10.2075C28.3887 10.3339 28.1466 10.7103 28.165 11.3815C28.1887 12.3002 28.1045 13.2241 28.1782 14.1375C28.3308 16.0486 27.041 16.9383 25.6801 17.7701C25.509 17.8728 25.0457 17.7596 24.8983 17.5885C24.485 17.1068 24.1639 16.5461 23.8006 16.0012L23.798 16.0038Z" fill="#0F1936"/>
<path d="M5.34285 3.64501C5.56396 3.83454 5.66136 3.91351 5.75349 3.99774C6.0641 4.27413 6.37208 4.55052 6.68006 4.82691C6.34839 5.06909 6.04304 5.35865 5.68242 5.54028C4.9638 5.9009 4.87693 6.40367 5.50079 6.92224C5.59818 7.00384 5.74823 7.02489 5.84825 7.10123C6.47474 7.58558 6.46685 7.84618 5.81667 8.26208C5.56133 8.42528 5.23229 8.53321 5.06383 8.76222C4.90589 8.97807 4.80059 9.36502 4.88746 9.58877C4.95064 9.74934 5.36917 9.80724 5.63767 9.8362C5.83772 9.85725 6.05094 9.75986 6.37472 9.69142C6.42736 10.4258 5.96671 10.7996 5.56396 11.1313C4.81639 11.7446 4.42417 12.5001 4.182 13.4372C3.85823 14.7033 3.36599 15.93 2.11301 16.8671C1.93138 15.4825 2.72634 14.3638 2.67632 13.0002C2.34202 13.1213 2.07089 13.1924 1.82609 13.3161C1.06009 13.7004 0.746842 13.6557 0.415171 13.0766C0.0677067 12.4711 0.178263 11.8289 0.770532 11.4735C1.13906 11.2524 1.57865 11.1497 1.98929 10.997C2.27358 10.8918 2.60262 10.847 2.83426 10.6733C3.32913 10.3021 3.19225 9.70722 2.59735 9.50979C2.39203 9.44135 2.13407 9.45714 1.97613 9.33606C1.74975 9.15969 1.45493 8.89646 1.44704 8.66219C1.43914 8.4595 1.75765 8.19364 1.98929 8.04359C2.27884 7.85407 2.71317 7.83301 2.92113 7.59611C3.14224 7.34604 3.1712 6.92486 3.28438 6.58003C3.01062 6.52475 2.70001 6.35892 2.46837 6.43526C1.58918 6.72481 1.03903 6.4221 0.58627 5.50079C1.13642 5.21124 1.65762 4.93748 2.26042 4.61897C2.04194 4.1162 1.74449 3.62922 1.62077 3.10012C1.48915 2.53154 1.25751 1.84451 1.92612 1.43124C2.33939 1.17591 2.93166 1.76291 3.18172 2.6579C3.32913 3.18962 3.43706 3.73451 3.63711 4.58475C4.0188 4.07671 4.25044 3.80295 4.4426 3.50286C4.9638 2.69475 5.43498 1.84978 5.9904 1.06535C6.46948 0.394114 6.89591 0.304613 7.27233 0.659975C7.75404 1.11273 7.6935 1.69974 7.07754 2.2341C6.52476 2.71055 5.94565 3.1554 5.33495 3.64765L5.34285 3.64501Z" fill="#0F1936"/>
<path d="M9.39079 4.70073C8.73272 4.84287 8.35367 4.98239 7.97725 4.97975C7.77982 4.97975 7.52449 4.75074 7.41656 4.55858C7.36655 4.46645 7.56661 4.10319 7.71401 4.05581C8.53793 3.79784 9.36973 3.54515 10.2173 3.40037C10.6727 3.32403 11.2176 4.04265 11.2782 4.72442C11.3282 5.2851 11.2887 5.85105 11.2887 6.59072C12.2574 6.34592 12.9523 6.65127 13.3393 7.42253C13.4656 7.6726 13.4498 8.12536 13.2998 8.35437C13.0602 8.7229 12.6943 8.55179 12.3995 8.29383C12.1731 8.09641 11.9283 7.91741 11.6204 7.67261C11.1913 8.27014 11.3361 8.88346 11.4229 9.44415C11.4519 9.63104 11.8388 9.85215 12.0889 9.89427C12.7654 10.0075 13.1918 10.3918 13.4946 10.9604C13.7341 11.4131 13.6709 11.8764 13.2208 12.087C13.005 12.1896 12.5969 12.008 12.3363 11.8527C12.1337 11.7316 12.0257 11.4526 11.8757 11.242C11.773 11.2789 11.6677 11.3157 11.5651 11.3526C11.5072 11.6553 11.4282 11.9527 11.3966 12.2581C11.3176 12.9951 11.2887 13.7374 11.1834 14.4719C11.1334 14.8088 11.0412 15.23 10.8096 15.4353C10.2437 15.9381 9.58558 16.3355 8.96699 16.7751C8.63006 16.2539 8.29312 15.7327 7.9325 15.172C9.43291 14.7009 9.43818 14.7009 9.47503 13.3268C9.48819 12.8109 9.47503 12.2949 9.23022 11.6711C8.98015 11.9317 8.73008 12.1923 8.48265 12.4555C7.70612 13.2768 7.46131 13.2347 6.69531 12.058C7.27179 11.6948 7.84563 11.3236 8.42737 10.9656C9.15915 10.5155 9.53557 9.91533 9.48819 9.01245C9.41449 7.62522 9.42501 6.23273 9.39606 4.69809L9.39079 4.70073Z" fill="#0F1936"/>
<path d="M30.7154 4.2926C30.9181 3.91355 31.0971 3.57662 31.3814 3.05015C30.8865 2.99751 30.5154 2.88432 30.1705 2.93697C29.1018 3.1028 28.0463 3.34235 26.9828 3.53451C26.6511 3.59505 26.2747 3.68981 25.9746 3.59504C24.6137 3.16071 23.4687 3.84248 22.3421 4.35051C21.9788 4.51372 21.7471 5.28762 21.7182 5.79828C21.6787 6.53796 21.5313 7.18288 21.0364 7.72513C20.4994 8.31214 19.9124 8.22528 19.7992 7.48297C19.536 5.76933 19.6729 4.07149 20.3783 2.45788C20.5573 2.04988 20.9232 1.74453 21.3102 2.05778C22.2394 2.81325 23.2028 2.5237 24.1873 2.31311C24.5558 2.23414 24.9296 2.18413 25.435 2.09726C25.1718 1.67872 24.9296 1.4155 24.8348 1.10752C24.7559 0.846919 24.7427 0.446807 24.8901 0.26781C25.0402 0.0888132 25.4824 -0.0270135 25.6982 0.0651173C26.2484 0.29676 26.867 0.554726 27.2276 0.994322C27.8304 1.7261 28.4911 1.94722 29.3887 1.82613C30.3811 1.69188 31.384 1.60765 32.3817 1.58923C32.7265 1.58133 33.1661 1.7498 33.4056 1.99197C33.732 2.32364 33.9637 2.78166 34.1348 3.22389C34.4586 4.05833 34.1558 4.49792 33.253 4.49003C32.4422 4.48213 31.6315 4.37158 30.7128 4.29787L30.7154 4.2926Z" fill="#0F1936"/>
<path d="M44.3613 2.11065C44.3113 1.6421 44.2534 1.39203 44.2666 1.14722C44.2955 0.589172 44.6535 0.323307 45.151 0.48651C45.6801 0.660242 46.1487 1.01034 46.6646 1.23672C47.1253 1.43677 47.6201 1.72896 48.0887 1.7079C49.5575 1.6421 51.0685 2.04484 52.4978 1.34991C52.6689 1.2683 52.9979 1.41045 53.2033 1.53417C53.377 1.63946 53.4955 1.85531 53.6113 2.03957C53.9561 2.58446 54.5036 3.13988 54.0667 3.81901C53.6639 4.4455 52.9743 4.16384 52.3715 4.12173C51.8266 4.08487 51.279 4.11383 50.6841 4.11383C50.8737 3.7532 51.0816 3.35573 51.358 2.8319C49.9129 2.46337 48.5941 2.64237 47.3069 3.00299C47.0279 3.08196 46.8462 3.5005 46.6172 3.75847C45.9065 4.56132 45.5275 4.55343 44.9852 3.59264C44.7167 3.11356 44.3666 3.13198 43.9981 3.22148C43.0215 3.45839 42.037 3.69793 41.1025 4.05329C40.8472 4.15069 40.6261 4.65609 40.605 4.98776C40.5603 5.67742 40.4102 6.28548 39.8891 6.75667C39.3915 7.20679 38.923 7.14362 38.7887 6.53292C38.4387 4.94037 38.6492 3.39521 39.46 1.96324C39.6758 1.58419 40.0891 1.55523 40.3655 1.83162C41.6632 3.13988 42.9741 1.95534 44.3666 2.10801L44.3613 2.11065Z" fill="#0F1936"/>
<path d="M13.6368 3.64506C13.0866 3.8767 12.7392 4.11361 12.3759 4.14783C12.0837 4.17415 11.7705 3.95304 11.4678 3.83985C11.6362 3.58451 11.7547 3.1844 11.9863 3.10017C12.8366 2.78692 13.721 2.54739 14.6055 2.3447C15.1688 2.21572 15.7058 2.79219 15.8137 3.63453C15.9269 4.50056 16.0164 5.37185 16.0401 6.24578C16.0927 8.21475 16.1296 10.1837 16.1085 12.15C16.1006 12.9292 15.9427 13.7084 15.8058 14.4796C15.5979 15.6405 14.7081 16.217 13.7658 16.7224C13.3236 16.9593 12.9971 16.7645 12.8181 16.3407C12.6655 15.9827 12.5602 15.6063 12.3943 15.1193C13.9816 14.8929 13.95 13.7531 13.9342 12.5791C13.9 10.1732 13.9185 7.76725 13.8842 5.36132C13.8763 4.82696 13.7368 4.29524 13.6394 3.64506H13.6368Z" fill="#0F1936"/>
<path d="M64.7459 8.54918C64.4984 9.19936 64.201 10.3128 63.6429 11.2789C63.3955 11.7106 62.6427 11.8869 62.0873 12.0949C61.6266 12.2686 61.1212 12.3608 61.0264 12.9267C60.9843 13.1899 61.0185 13.6164 61.1817 13.7217C61.366 13.8427 61.7424 13.7269 62.0135 13.6401C62.1504 13.5953 62.2847 13.4005 62.3294 13.2478C62.5137 12.5898 62.8743 12.3976 63.4982 12.7187C64.1062 13.0294 64.5722 13.8401 64.3116 14.3218C64.2089 14.514 63.7719 14.7193 63.6008 14.6482C62.8611 14.335 62.4847 14.7877 62.0057 15.1958C61.445 15.6748 60.8369 16.1302 60.1762 16.4435C59.8603 16.5935 59.2681 16.5277 58.9943 16.3145C58.56 15.9749 58.8679 15.4853 59.168 15.1747C59.6418 14.6851 59.6997 14.1244 59.6919 13.4874C59.6734 12.0001 59.6734 10.5129 59.7392 9.02826C59.8156 7.31463 60.1578 6.98559 61.8056 6.76447C62.1952 6.71183 62.5821 6.63812 62.9638 6.54862C64.2589 6.24064 64.8117 6.71183 64.7459 8.55181V8.54918ZM61.4134 8.50442C62.5716 9.25726 62.5611 9.24673 61.4871 10.1259C61.3239 10.2575 61.2949 10.5524 61.2028 10.7735C61.4423 10.813 61.7293 10.9551 61.9135 10.8709C62.2531 10.7156 62.6874 10.4866 62.8032 10.1812C63.127 9.33361 63.2928 8.43336 62.9849 7.51468C62.239 7.72702 61.7152 8.05693 61.4134 8.50442Z" fill="#0F1936"/>
<path d="M57.8262 9.56245C57.8578 8.19365 58.2447 7.15389 58.7054 6.19836C59.4424 4.67162 60.2926 3.18437 61.235 1.77345C61.8747 0.81529 62.0931 0.915312 62.6723 1.84978C62.8486 2.1367 63.225 2.30518 63.5199 2.51313C63.9647 2.82637 64.4596 3.08697 64.8439 3.46076C64.9518 3.56605 64.8413 4.08988 64.6728 4.23202C64.5043 4.37417 64.0779 4.38733 63.8673 4.26887C63.5804 4.1083 63.3909 3.77137 63.1566 3.5134C62.8907 3.22122 62.5854 3.06328 62.259 3.40021C61.9747 3.69503 61.7483 4.0346 62.1616 4.41365C62.3222 4.56106 62.5828 4.67952 62.6301 4.85588C62.7091 5.15333 62.7354 5.51922 62.6196 5.78772C62.5722 5.89828 62.0852 5.89827 61.8352 5.82457C61.6035 5.75613 61.4193 5.52185 61.1508 5.3139C59.553 6.22994 59.4608 8.37001 57.8288 9.56507L57.8262 9.56245Z" fill="#0F1936"/>
<path d="M41.1055 7.10405C41.4371 5.88792 42.2689 4.9903 43.1271 4.12691C43.4588 3.7926 43.9036 3.47672 44.3748 3.97949C44.8407 4.47436 44.8091 5.17983 44.2458 5.58257C43.5719 6.06429 42.8507 6.48019 42.1426 6.91189C41.8715 7.07772 41.5819 7.2146 41.3003 7.36464C41.2344 7.27778 41.1713 7.19091 41.1055 7.10405Z" fill="#0F1936"/>
<path d="M49.797 5.14021C49.6575 5.27446 49.4232 5.693 49.11 5.76144C48.4256 5.90885 47.599 4.95332 47.5938 4.1452C47.5911 3.69244 47.757 3.38183 48.2519 3.37657C48.9705 3.36604 49.7628 4.1452 49.797 5.14021Z" fill="#0F1936"/>
<path d="M7.49354 6.75385C8.3464 6.75385 8.9492 7.28031 8.9571 7.84625C8.96236 8.31217 8.71493 8.58067 8.25164 8.58593C7.74887 8.5912 6.86705 7.7357 6.99077 7.30663C7.0671 7.04604 7.39088 6.85915 7.49617 6.75122L7.49354 6.75385Z" fill="#0F1936"/>
</svg>
